<svg data-v-423bf9ae="" xmlns="http://www.w3.org/2000/svg" viewBox="0 0 342.93100641683935 60" class="font"><!----><!----><!----><g data-v-423bf9ae="" id="b68916e7-77d8-487e-ac4e-6d133950ff02" fill="white" transform="matrix(5.74712610244751,0,0,5.74712610244751,-2.8160924911499023,-20.05746841430664)"><path d="M0.49 5.12L6.97 5.12L6.97 7.17L6.19 7.17L5.88 6.08L3.57 6.08L3.57 9.24L5.05 9.24L5.29 8.32L6.03 8.32L6.03 10.99L5.29 10.99L5.03 10.02L3.57 10.02L3.57 12.67L5.05 13.02L5.05 13.72L0.50 13.72L0.50 13.09L1.68 12.75L1.68 6.08L0.49 5.75L0.49 5.12ZM10.96 6.69L10.96 6.69Q12.75 6.69 13.60 7.69L13.60 7.69L13.60 7.69Q14.45 8.68 14.45 10.30L14.45 10.30L14.45 10.30Q14.45 11.87 13.59 12.87L13.59 12.87L13.59 12.87Q12.74 13.86 10.96 13.86L10.96 13.86L10.96 13.86Q9.23 13.86 8.38 12.87L8.38 12.87L8.38 12.87Q7.53 11.87 7.53 10.30L7.53 10.30L7.53 10.30Q7.53 8.68 8.37 7.69L8.37 7.69L8.37 7.69Q9.20 6.69 10.96 6.69L10.96 6.69ZM12.42 10.28L12.42 10.28Q12.42 9.00 12.10 8.32L12.10 8.32L12.10 8.32Q11.77 7.63 10.93 7.63L10.93 7.63L10.93 7.63Q10.15 7.63 9.86 8.32L9.86 8.32L9.86 8.32Q9.56 9.00 9.56 10.28L9.56 10.28L9.56 10.28Q9.56 11.54 9.88 12.22L9.88 12.22L9.88 12.22Q10.19 12.91 11.02 12.91L11.02 12.91L11.02 12.91Q11.83 12.91 12.12 12.23L12.12 12.23L12.12 12.23Q12.42 11.55 12.42 10.28L12.42 10.28ZM18.58 6.69L18.58 6.69Q20.37 6.69 21.22 7.69L21.22 7.69L21.22 7.69Q22.06 8.68 22.06 10.30L22.06 10.30L22.06 10.30Q22.06 11.87 21.21 12.87L21.21 12.87L21.21 12.87Q20.36 13.86 18.58 13.86L18.58 13.86L18.58 13.86Q16.84 13.86 16.00 12.87L16.00 12.87L16.00 12.87Q15.15 11.87 15.15 10.30L15.15 10.30L15.15 10.30Q15.15 8.68 15.98 7.69L15.98 7.69L15.98 7.69Q16.81 6.69 18.58 6.69L18.58 6.69ZM20.03 10.28L20.03 10.28Q20.03 9.00 19.71 8.32L19.71 8.32L19.71 8.32Q19.39 7.63 18.55 7.63L18.55 7.63L18.55 7.63Q17.77 7.63 17.47 8.32L17.47 8.32L17.47 8.32Q17.18 9.00 17.18 10.28L17.18 10.28L17.18 10.28Q17.18 11.54 17.49 12.22L17.49 12.22L17.49 12.22Q17.81 12.91 18.63 12.91L18.63 12.91L18.63 12.91Q19.45 12.91 19.74 12.23L19.74 12.23L19.74 12.23Q20.03 11.55 20.03 10.28L20.03 10.28ZM27.27 13.05L27.27 13.05Q26.26 13.86 25.07 13.86L25.07 13.86L25.07 13.86Q23.95 13.86 23.36 12.83L23.36 12.83L23.36 12.83Q22.76 11.80 22.76 10.30L22.76 10.30L22.76 10.30Q22.76 8.61 23.55 7.65L23.55 7.65L23.55 7.65Q24.33 6.69 25.73 6.69L25.73 6.69L25.73 6.69Q26.22 6.69 26.67 6.84L26.67 6.84L26.67 6.84Q27.12 6.99 27.23 7.07L27.23 7.07L27.23 4.86L26.14 4.70L26.14 4.03L28.50 3.49L29.12 3.49L29.12 12.56L30.21 12.95L30.21 13.55L30.21 13.55Q29.30 13.79 28.66 13.79L28.66 13.79L28.66 13.79Q28.17 13.79 27.78 13.59L27.78 13.59L27.78 13.59Q27.38 13.40 27.27 13.05L27.27 13.05ZM26.00 12.73L26.00 12.73Q26.35 12.73 26.71 12.58L26.71 12.58L26.71 12.58Q27.06 12.43 27.23 12.25L27.23 12.25L27.23 8.01L27.23 8.01Q27.05 7.84 26.74 7.74L26.74 7.74L26.74 7.74Q26.43 7.63 26.17 7.63L26.17 7.63L26.17 7.63Q25.48 7.63 25.14 8.33L25.14 8.33L25.14 8.33Q24.79 9.03 24.79 10.28L24.79 10.28L24.79 10.28Q24.79 11.42 25.09 12.08L25.09 12.08L25.09 12.08Q25.38 12.73 26.00 12.73L26.00 12.73ZM42.99 7.56L42.11 7.80L40.25 13.79L38.92 13.93L37.72 10.26L36.60 13.79L35.28 13.93L33.14 7.77L32.42 7.56L32.42 6.83L35.84 6.83L35.84 7.60L35.11 7.77L36.22 11.63L37.45 7.52L38.63 7.32L39.86 11.65L40.85 7.80L39.96 7.60L39.96 6.83L42.99 6.83L42.99 7.56ZM45.25 5.80L45.25 5.80Q44.77 5.80 44.41 5.47L44.41 5.47L44.41 5.47Q44.04 5.14 44.04 4.68L44.04 4.68L44.04 4.68Q44.04 4.20 44.41 3.85L44.41 3.85L44.41 3.85Q44.77 3.50 45.25 3.50L45.25 3.50L45.25 3.50Q45.72 3.50 46.06 3.85L46.06 3.85L46.06 3.85Q46.40 4.20 46.40 4.68L46.40 4.68L46.40 4.68Q46.40 5.15 46.06 5.47L46.06 5.47L46.06 5.47Q45.72 5.80 45.25 5.80L45.25 5.80ZM47.29 13.72L43.22 13.72L43.22 13.02L44.31 12.74L44.31 8.06L43.22 7.91L43.22 7.24L45.58 6.69L46.20 6.69L46.20 12.74L47.29 13.02L47.29 13.72ZM50.78 7.63L50.78 7.63Q50.25 7.63 49.94 7.83L49.94 7.83L49.94 7.83Q49.63 8.04 49.63 8.39L49.63 8.39L49.63 8.39Q49.63 8.68 49.78 8.88L49.78 8.88L49.78 8.88Q49.92 9.07 50.29 9.20L50.29 9.20L51.88 9.70L51.88 9.70Q52.61 9.93 52.96 10.38L52.96 10.38L52.96 10.38Q53.30 10.84 53.30 11.68L53.30 11.68L53.30 11.68Q53.30 12.68 52.53 13.27L52.53 13.27L52.53 13.27Q51.76 13.86 50.39 13.86L50.39 13.86L50.39 13.86Q49.84 13.86 49.19 13.77L49.19 13.77L49.19 13.77Q48.54 13.68 48.05 13.51L48.05 13.51L48.22 11.56L49.03 11.56L49.32 12.74L49.32 12.74Q49.80 12.91 50.33 12.91L50.33 12.91L50.33 12.91Q51.70 12.91 51.70 12.05L51.70 12.05L51.70 12.05Q51.70 11.75 51.54 11.61L51.54 11.61L51.54 11.61Q51.38 11.47 50.93 11.31L50.93 11.31L49.41 10.79L49.41 10.79Q48.73 10.57 48.40 10.12L48.40 10.12L48.40 10.12Q48.06 9.66 48.06 8.90L48.06 8.90L48.06 8.90Q48.06 7.87 48.75 7.28L48.75 7.28L48.75 7.28Q49.43 6.69 50.81 6.69L50.81 6.69L50.81 6.69Q51.35 6.69 51.93 6.80L51.93 6.80L51.93 6.80Q52.51 6.90 53.00 7.10L53.00 7.10L52.81 8.86L52.02 8.86L51.74 7.83L51.74 7.83Q51.51 7.73 51.30 7.68L51.30 7.68L51.30 7.68Q51.09 7.63 50.78 7.63L50.78 7.63ZM57.48 13.86L57.48 13.86Q54.12 13.86 54.12 10.30L54.12 10.30L54.12 10.30Q54.12 8.37 55.02 7.53L55.02 7.53L55.02 7.53Q55.92 6.69 57.34 6.69L57.34 6.69L57.34 6.69Q58.81 6.69 59.49 7.34L59.49 7.34L59.49 7.34Q60.16 7.99 60.16 9.38L60.16 9.38L60.16 9.38Q60.16 9.98 60.10 10.30L60.10 10.30L56.15 10.30L56.15 10.64L56.15 10.64Q56.15 11.87 56.62 12.34L56.62 12.34L56.62 12.34Q57.08 12.81 58.04 12.81L58.04 12.81L58.04 12.81Q58.77 12.81 59.98 12.47L59.98 12.47L60.09 13.09L60.09 13.09Q59.07 13.86 57.48 13.86L57.48 13.86ZM56.18 9.55L58.25 9.39L58.25 9.10L58.25 9.10Q58.25 8.40 58.09 8.03L58.09 8.03L58.09 8.03Q57.92 7.66 57.41 7.66L57.41 7.66L57.41 7.66Q56.71 7.66 56.46 8.11L56.46 8.11L56.46 8.11Q56.21 8.57 56.18 9.55L56.18 9.55Z"></path></g><!----><!----></svg>